<svg xmlns="http://www.w3.org/2000/svg" data-name="Layer 1" viewBox="0 0 60.51 90.53750000000001" x="0px" y="0px"><title>43</title><path d="M272,1010.45v21H260.64v-30.06a5.69,5.69,0,0,1,9.71-4,5.32,5.32,0,0,1,.83,1.06l-10.45,6,5.42,9.39Z" transform="translate(-259.74 -973.78)"/><path d="M315.84,973.78l-44.22,25.53-9.52,5.5,4.41,7.65,5.51-3.18,48.24-27.85Zm-48.32,35.54a2.54,2.54,0,1,1,2.54-2.54A2.54,2.54,0,0,1,267.52,1009.33Z" transform="translate(-259.74 -973.78)"/><rect y="58.65" width="13.77" height="13.78"/><text x="0" y="87.43" fill="#000000" font-size="5px" font-weight="bold" font-family="'Helvetica Neue', Helvetica, Arial-Unicode, Arial, Sans-serif">Created by Andy Miranda</text><text x="0" y="92.43" fill="#000000" font-size="5px" font-weight="bold" font-family="'Helvetica Neue', Helvetica, Arial-Unicode, Arial, Sans-serif">from the Noun Project</text></svg>