<svg xmlns="http://www.w3.org/2000/svg" xmlns:xlink="http://www.w3.org/1999/xlink" version="1.1" x="0px" y="0px" viewBox="0 0 3873 4841.25"  xml:space="preserve"><g><g><path d="M1284,2885.2c-33.4,0-60.5-27.1-60.5-60.5v-1618c0-228.8-186.2-415-415-415s-415,186.2-415,415v1618    c0,33.4-27.1,60.5-60.5,60.5s-60.5-27.1-60.5-60.5v-1618c0-295.2,238.6-536.1,536.1-536.1c295.2,0,536.1,238.6,536.1,536.1v1618    C1344.5,2858.1,1317.4,2885.2,1284,2885.2z"/></g><g><path d="M1382.4,3202.3H234.5c-33.4,0-60.5-27.1-60.5-60.5v-317c0-33.4,27.1-60.5,60.5-60.5h1147.9c33.4,0,60.5,27.1,60.5,60.5    v317C1442.9,3175.2,1415.8,3202.3,1382.4,3202.3z M295,3081.2h1026.8v-196H295V3081.2z"/></g><g><path d="M808.4,1508.5c-163,0-295.6-132.6-295.6-295.6s132.6-295.6,295.6-295.6s295.6,132.6,295.6,295.6    S971.4,1508.5,808.4,1508.5z M808.4,1038.4c-96.2,0-174.5,78.3-174.5,174.5s78.3,174.5,174.5,174.5s174.5-78.3,174.5-174.5    C983,1116.7,904.7,1038.4,808.4,1038.4z"/></g><g><path d="M3441.7,1641.7H1284c-33.4,0-60.5-27.1-60.5-60.5s27.1-60.5,60.5-60.5h2157.7c75.1,0,136.3-61.1,136.3-136.3    s-61.1-136.3-136.3-136.3H1284c-33.4,0-60.5-27.1-60.5-60.5s27.1-60.5,60.5-60.5h2157.7c141.9,0,257.3,115.4,257.3,257.3    S3583.6,1641.7,3441.7,1641.7z"/></g><g><path d="M1540,1593l-78.6-393.6c-6.5-32.8,14.7-64.6,47.5-71.2c32.8-6.5,64.6,14.7,71.2,47.5l78.6,393.6    c6.5,32.8-14.7,64.6-47.5,71.2C1578.2,1647.1,1546.6,1625.6,1540,1593z"/></g><g><path d="M1900.5,1593l-78.6-393.6c-6.5-32.8,14.7-64.6,47.5-71.2c32.8-6.5,64.6,14.7,71.2,47.5l78.6,393.6    c6.5,32.8-14.7,64.6-47.5,71.2C1938.7,1647.1,1907.1,1625.6,1900.5,1593z"/></g><g><path d="M2260.9,1593l-78.6-393.6c-6.5-32.8,14.7-64.6,47.5-71.2c32.8-6.5,64.6,14.7,71.2,47.5l78.6,393.6    c6.5,32.8-14.7,64.6-47.5,71.2C2299.1,1647.1,2267.5,1625.6,2260.9,1593z"/></g><g><path d="M2621.4,1593l-78.6-393.6c-6.5-32.8,14.7-64.6,47.5-71.2c32.8-6.5,64.6,14.7,71.2,47.5l78.6,393.6    c6.5,32.8-14.7,64.6-47.5,71.2C2659.6,1647.1,2628,1625.6,2621.4,1593z"/></g><g><path d="M2981.8,1593l-78.6-393.6c-6.5-32.8,14.7-64.6,47.5-71.2c32.8-6.5,64.6,14.7,71.2,47.5l78.6,393.6    c6.5,32.8-14.7,64.6-47.5,71.2C3020,1647.1,2988.4,1625.6,2981.8,1593z"/></g><g><path d="M3342.3,1593l-78.6-393.6c-6.5-32.8,14.7-64.6,47.5-71.2c32.8-6.5,64.6,14.7,71.2,47.5l78.6,393.6    c6.5,32.8-14.7,64.6-47.5,71.2C3380.5,1647.1,3348.9,1625.6,3342.3,1593z"/></g><g><path d="M1284,2048.9H332.9c-33.4,0-60.5-27.1-60.5-60.5s27.1-60.5,60.5-60.5H1284c33.4,0,60.5,27.1,60.5,60.5    C1344.5,2021.8,1317.4,2048.9,1284,2048.9z"/></g><g><path d="M1284,2569.6H332.9c-33.4,0-60.5-27.1-60.5-60.5s27.1-60.5,60.5-60.5H1284c33.4,0,60.5,27.1,60.5,60.5    S1317.4,2569.6,1284,2569.6z"/></g></g><text x="0" y="3888" fill="#FFFFFF" font-size="5px" font-weight="bold" font-family="'Helvetica Neue', Helvetica, Arial-Unicode, Arial, Sans-serif">Created by Graphixs_Art</text><text x="0" y="3893" fill="#FFFFFF" font-size="5px" font-weight="bold" font-family="'Helvetica Neue', Helvetica, Arial-Unicode, Arial, Sans-serif">from the Noun Project</text></svg>